<svg xmlns="http://www.w3.org/2000/svg" viewBox="100 70 1000 480" width="1000" height="480" role="img" aria-label="Vinoos Trading EST.">
  <title>Vinoos Trading EST.</title>
  <defs>
    <linearGradient id="vinoosRingGrad" x1="0" y1="0" x2="0" y2="1">
      <stop offset="0" stop-color="#9b9899"/>
      <stop offset="0.5" stop-color="#807d7e"/>
      <stop offset="1" stop-color="#9b9899"/>
    </linearGradient>
    <linearGradient id="vinoosTxtGrad" x1="0" y1="0" x2="0" y2="1">
      <stop offset="0" stop-color="#EB6326"/>
      <stop offset="1" stop-color="#D8470F"/>
    </linearGradient>
  </defs>
  <ellipse cx="600.0" cy="310.0" rx="470" ry="215" fill="none" stroke="url(#vinoosRingGrad)" stroke-width="26"/>
  <g transform="translate(290.00 223.68) scale(2.4632)">
    <path d="M 80.91 6.41 C 80.91 4.59 80.70 3.70 80.00 1.70 C 78.00 0.50 77.20 0.20 74.80 0.00 C 72.09 1.20 71.00 2.00 68.70 4.00 C 71.30 6.20 72.20 8.20 72.20 11.59 C 72.20 16.91 68.80 24.30 63.09 31.80 C 57.70 38.80 53.70 43.00 35.70 60.50 L 42.41 14.59 C 44.80 13.50 45.41 13.09 46.91 11.91 C 42.09 11.41 39.80 11.20 36.70 11.20 C 28.91 11.20 24.00 12.70 19.09 16.41 C 13.59 20.59 10.41 26.59 10.41 32.50 C 10.41 35.09 10.91 37.00 12.20 40.20 L 19.80 36.00 C 18.50 32.59 18.09 30.80 18.09 28.00 C 18.09 20.30 23.20 14.80 30.30 14.80 C 31.50 14.80 32.91 14.91 34.59 15.09 C 32.00 35.30 28.09 61.70 26.50 69.70 C 29.30 69.20 29.70 69.09 33.91 68.09 L 44.70 56.50 C 60.30 40.50 68.30 31.70 72.50 26.09 C 78.09 18.50 80.91 11.91 80.91 6.41 Z M 94.80 59.50 L 95.20 56.50 C 90.30 59.50 85.41 62.00 84.50 62.00 C 83.41 62.00 82.59 60.80 82.59 59.20 C 82.59 55.59 83.80 51.80 84.70 48.00 L 87.80 35.30 C 88.30 33.20 89.09 30.00 89.09 28.80 C 89.09 28.00 88.80 27.50 87.91 27.50 C 85.59 27.50 75.20 34.30 72.20 36.30 L 72.09 39.20 C 74.41 37.91 78.00 35.50 79.41 35.50 C 80.50 35.50 80.59 36.59 80.59 37.50 C 80.59 39.70 78.41 47.09 77.30 51.70 C 76.20 56.30 74.41 61.00 74.41 65.50 C 74.41 68.09 75.41 69.70 77.00 69.70 C 78.70 69.70 80.50 68.80 86.30 65.00 C 87.91 63.91 88.70 63.30 94.80 59.50 Z M 95.50 13.09 C 93.70 10.20 93.59 9.91 92.59 7.59 C 92.50 7.20 92.30 6.70 92.09 6.30 C 91.50 6.80 91.09 7.09 90.70 7.41 C 88.00 9.70 87.80 9.80 85.20 11.59 C 86.00 14.00 86.70 15.20 89.00 18.59 L 92.30 15.59 C 92.91 15.20 93.20 14.91 95.50 13.09 Z M 140.00 55.70 C 130.00 61.41 129.59 61.59 128.59 61.59 C 127.59 61.59 127.00 60.50 127.00 58.91 C 127.00 56.80 127.70 53.50 129.59 46.59 C 134.30 29.80 134.30 29.80 134.30 29.09 C 134.30 28.00 133.59 27.41 132.30 27.41 C 130.80 27.41 128.59 28.30 125.00 30.59 L 111.30 39.09 C 112.20 35.80 113.70 29.50 113.70 28.70 C 113.70 28.00 113.09 27.41 112.41 27.41 C 111.30 27.41 104.09 31.09 96.70 35.50 L 96.09 38.09 C 102.50 35.20 102.91 35.09 103.80 35.09 C 104.50 35.09 105.00 35.70 105.00 36.50 C 105.00 38.59 103.09 46.91 100.59 56.00 L 98.30 64.09 L 96.91 69.50 L 104.41 66.59 L 110.30 43.09 C 122.80 35.20 123.09 35.09 124.50 35.09 C 125.20 35.09 125.59 35.59 125.59 36.41 C 125.59 37.91 124.80 41.70 121.91 53.09 C 119.70 62.00 119.30 63.70 119.30 65.59 C 119.30 67.00 119.70 68.30 120.80 70.09 C 125.41 68.00 132.30 63.70 139.30 58.50 L 140.00 55.70 Z M 178.91 36.59 C 178.91 31.20 175.20 27.41 169.91 27.41 C 165.91 27.41 159.50 30.30 153.59 34.70 C 147.20 39.50 142.70 49.91 142.70 59.80 C 142.70 65.91 146.09 69.80 151.41 69.80 C 154.20 69.80 157.00 68.80 161.59 66.41 C 166.59 63.59 169.91 61.09 171.70 58.70 C 175.70 53.30 178.91 43.50 178.91 36.59 Z M 171.20 42.00 C 171.20 46.20 169.80 51.41 167.30 56.30 C 164.50 62.00 160.91 65.09 157.09 65.09 C 153.00 65.09 150.41 61.41 150.41 55.70 C 150.41 44.09 157.70 32.09 164.70 32.09 C 168.70 32.09 171.20 36.00 171.20 42.00 Z M 218.91 36.59 C 218.91 31.20 215.20 27.41 209.91 27.41 C 205.91 27.41 199.50 30.30 193.59 34.70 C 187.20 39.50 182.70 49.91 182.70 59.80 C 182.70 65.91 186.09 69.80 191.41 69.80 C 194.20 69.80 197.00 68.80 201.59 66.41 C 206.59 63.59 209.91 61.09 211.70 58.70 C 215.70 53.30 218.91 43.50 218.91 36.59 Z M 211.20 42.00 C 211.20 46.20 209.80 51.41 207.30 56.30 C 204.50 62.00 200.91 65.09 197.09 65.09 C 193.00 65.09 190.41 61.41 190.41 55.70 C 190.41 44.09 197.70 32.09 204.70 32.09 C 208.70 32.09 211.20 36.00 211.20 42.00 Z M 251.70 30.80 C 249.70 28.41 247.80 27.41 245.00 27.41 C 237.70 27.41 228.30 36.09 228.30 42.70 C 228.30 45.80 229.91 48.20 233.70 50.91 C 238.70 54.41 239.41 55.30 239.41 57.80 C 239.41 61.41 234.80 65.59 230.91 65.59 C 228.70 65.59 227.00 64.41 226.00 62.20 C 225.30 60.70 225.09 59.20 225.00 55.80 C 223.91 56.59 223.09 57.09 222.70 57.41 C 221.91 57.91 221.00 58.41 220.09 59.00 C 220.09 59.00 219.30 59.50 218.30 60.20 C 218.20 61.09 218.09 61.91 218.09 62.50 C 218.09 66.80 221.09 69.80 225.50 69.80 C 228.59 69.80 232.91 68.50 236.09 66.70 C 242.00 63.30 245.59 58.20 245.59 53.20 C 245.59 49.50 244.91 48.70 239.30 45.20 C 235.91 43.00 234.50 41.09 234.50 38.50 C 234.50 35.09 237.41 32.09 240.80 32.09 C 243.09 32.09 244.80 33.20 247.00 36.00 C 250.41 32.70 250.41 32.70 251.70 30.80 Z" fill="url(#vinoosTxtGrad)"/>
  </g>
</svg>
